<svg xmlns="http://www.w3.org/2000/svg" viewBox="0 0 500 500"><g id="freepik--background-complete--inject-22"><rect y="382.4" width="500" height="0.25" style="fill:#ebebeb"></rect><rect x="52.46" y="398.49" width="33.12" height="0.25" style="fill:#ebebeb"></rect><rect x="171.14" y="401.21" width="8.69" height="0.25" style="fill:#ebebeb"></rect><rect x="86.58" y="389.21" width="25.42" height="0.25" style="fill:#ebebeb"></rect><rect x="422" y="390.89" width="27.9" height="0.25" style="fill:#ebebeb"></rect><rect x="391.47" y="390.89" width="21.63" height="0.25" style="fill:#ebebeb"></rect><rect x="277.21" y="395.11" width="51.45" height="0.25" style="fill:#ebebeb"></rect><path d="M237,337.8H43.91a5.71,5.71,0,0,1-5.7-5.71V60.66A5.71,5.71,0,0,1,43.91,55H237a5.71,5.71,0,0,1,5.71,5.71V332.09A5.71,5.71,0,0,1,237,337.8ZM43.91,55.2a5.46,5.46,0,0,0-5.45,5.46V332.09a5.46,5.46,0,0,0,5.45,5.46H237a5.47,5.47,0,0,0,5.46-5.46V60.66A5.47,5.47,0,0,0,237,55.2Z" style="fill:#ebebeb"></path><path d="M453.31,337.8H260.21a5.72,5.72,0,0,1-5.71-5.71V60.66A5.72,5.72,0,0,1,260.21,55h193.1A5.71,5.71,0,0,1,459,60.66V332.09A5.71,5.71,0,0,1,453.31,337.8ZM260.21,55.2a5.47,5.47,0,0,0-5.46,5.46V332.09a5.47,5.47,0,0,0,5.46,5.46h193.1a5.47,5.47,0,0,0,5.46-5.46V60.66a5.47,5.47,0,0,0-5.46-5.46Z" style="fill:#ebebeb"></path><polygon points="115.51 247 83.28 247 83.28 382.4 138.88 382.4 138.88 270.37 115.51 247" style="fill:#e0e0e0"></polygon><rect x="59.92" y="270.36" width="46.73" height="112.03" style="fill:#ebebeb"></rect><rect x="59.92" y="270.36" width="46.73" height="1.84" style="fill:#e0e0e0"></rect><polygon points="83.28 247 59.92 270.37 106.64 270.37 83.28 247" style="fill:#ebebeb"></polygon><rect x="67.73" y="285" width="8.49" height="8.49" style="fill:#e0e0e0"></rect><rect x="86.38" y="285" width="8.49" height="8.49" style="fill:#e0e0e0"></rect><rect x="67.73" y="309.33" width="8.49" height="8.49" style="fill:#e0e0e0"></rect><rect x="86.38" y="309.33" width="8.49" height="8.49" style="fill:#e0e0e0"></rect><rect x="67.73" y="333.66" width="8.49" height="8.49" style="fill:#e0e0e0"></rect><rect x="86.38" y="333.66" width="8.49" height="8.49" style="fill:#e0e0e0"></rect><rect x="67.73" y="357.99" width="8.49" height="8.49" style="fill:#e0e0e0"></rect><rect x="86.38" y="357.99" width="8.49" height="8.49" style="fill:#e0e0e0"></rect><rect x="122.35" y="248.81" width="7.63" height="15.26" style="fill:#e0e0e0"></rect><polygon points="296.69 229.17 256.84 229.17 256.84 382.4 325.57 382.4 325.57 258.06 296.69 229.17" style="fill:#e0e0e0"></polygon><rect x="227.95" y="258.06" width="57.77" height="124.34" style="fill:#ebebeb"></rect><rect x="227.95" y="258.06" width="57.77" height="2.28" style="fill:#e0e0e0"></rect><polygon points="256.84 229.17 227.95 258.06 285.72 258.06 256.84 229.17" style="fill:#ebebeb"></polygon><polygon points="321.36 276.68 296.17 276.67 296.17 382.4 350.25 382.4 350.25 305.56 321.36 276.68" style="fill:#e0e0e0"></polygon><polygon points="296.17 276.67 296.17 305.56 296.17 382.4 325.06 382.4 325.06 305.56 296.17 276.67" style="fill:#ebebeb"></polygon><rect x="253.39" y="283.24" width="6.9" height="14.69" style="fill:#e0e0e0"></rect><rect x="268.62" y="283.24" width="6.9" height="14.69" style="fill:#e0e0e0"></rect><rect x="253.39" y="311.18" width="6.9" height="14.69" style="fill:#e0e0e0"></rect><rect x="268.62" y="311.18" width="6.9" height="14.69" style="fill:#e0e0e0"></rect><rect x="253.39" y="339.11" width="6.9" height="14.69" style="fill:#e0e0e0"></rect><rect x="238.15" y="283.24" width="6.9" height="14.69" style="fill:#e0e0e0"></rect><rect x="238.15" y="311.18" width="6.9" height="14.69" style="fill:#e0e0e0"></rect><rect x="238.15" y="339.11" width="6.9" height="14.69" style="fill:#e0e0e0"></rect><rect x="268.62" y="339.11" width="6.9" height="14.69" style="fill:#e0e0e0"></rect><rect x="304.4" y="311.18" width="6.9" height="14.69" style="fill:#e0e0e0"></rect><rect x="304.4" y="339.11" width="6.9" height="14.69" style="fill:#e0e0e0"></rect><polygon points="187.02 278.03 150.76 278.03 150.76 382.4 213.31 382.4 213.31 304.32 187.02 278.03" style="fill:#e0e0e0"></polygon><rect x="124.47" y="304.32" width="52.57" height="78.08" style="fill:#ebebeb"></rect><rect x="124.47" y="304.32" width="52.57" height="2.07" style="fill:#e0e0e0"></rect><polygon points="150.76 278.03 124.47 304.32 177.04 304.32 150.76 278.03" style="fill:#ebebeb"></polygon><rect x="133.26" y="320.79" width="9.55" height="9.55" style="fill:#e0e0e0"></rect><rect x="154.25" y="320.79" width="9.55" height="9.55" style="fill:#e0e0e0"></rect><rect x="133.26" y="348.16" width="9.55" height="9.55" style="fill:#e0e0e0"></rect><rect x="154.25" y="348.16" width="9.55" height="9.55" style="fill:#e0e0e0"></rect><rect x="144.98" y="266.48" width="11.55" height="23.1" style="fill:#ebebeb"></rect><polygon points="412.4 299.45 374.43 299.45 374.43 382.4 439.92 382.4 439.92 320.34 412.4 299.45" style="fill:#e0e0e0"></polygon><rect x="346.92" y="320.34" width="55.04" height="62.05" style="fill:#ebebeb"></rect><rect x="346.92" y="320.34" width="55.04" height="1.65" style="fill:#e0e0e0"></rect><polygon points="374.43 299.45 346.92 320.34 401.95 320.34 374.43 299.45" style="fill:#ebebeb"></polygon><rect x="355.42" y="330.44" width="5.01" height="10.77" style="fill:#e0e0e0"></rect><rect x="366.43" y="330.44" width="5.01" height="10.77" style="fill:#e0e0e0"></rect><rect x="355.42" y="355.52" width="5.01" height="10.77" style="fill:#e0e0e0"></rect><rect x="366.43" y="355.52" width="5.01" height="10.77" style="fill:#e0e0e0"></rect><rect x="377.43" y="330.44" width="5.01" height="10.77" style="fill:#e0e0e0"></rect><rect x="388.44" y="330.44" width="5.01" height="10.77" style="fill:#e0e0e0"></rect><rect x="377.43" y="355.52" width="5.01" height="10.77" style="fill:#e0e0e0"></rect><rect x="388.44" y="355.52" width="5.01" height="10.77" style="fill:#e0e0e0"></rect><rect x="406.53" y="290.27" width="12.09" height="18.36" style="fill:#e0e0e0"></rect><circle cx="156.41" cy="109.08" r="45.46" transform="translate(23.69 246) rotate(-80.78)" style="fill:#fafafa"></circle><path d="M340.66,150.13c6.8-10.43,18-17.85,28.33-17.85,6.47,0,11.4,2.92,14.19,7.68a20.93,20.93,0,0,1,11.95-4.34c7,0,11.43,5,11.55,12.11a29.57,29.57,0,0,1,10.79-2.7c7.08-.32,12.18,2.57,14.31,7.26a10.7,10.7,0,0,1,4.56-1.35c4.07-.18,6.25,2.73,4.87,6.5-.09.24-.19.47-.28.7H327C327.26,154.44,335.6,150.32,340.66,150.13Z" style="fill:#fafafa"></path><path d="M330.15,92.32c3.16-4.83,8.36-8.28,13.15-8.28a7.29,7.29,0,0,1,6.58,3.56,9.76,9.76,0,0,1,5.55-2c3.26,0,5.3,2.33,5.36,5.62a13.74,13.74,0,0,1,5-1.25c3.28-.15,5.65,1.19,6.64,3.36a5,5,0,0,1,2.11-.62,2.1,2.1,0,0,1,2.26,3c0,.11-.08.22-.13.33H323.8C323.94,94.32,327.81,92.41,330.15,92.32Z" style="fill:#fafafa"></path><path d="M171.79,110.07c7.63-11.7,20.2-20,31.78-20,7.26,0,12.79,3.28,15.91,8.62,4.21-3,8.93-4.87,13.42-4.87,7.89,0,12.82,5.63,12.95,13.59a33.3,33.3,0,0,1,12.11-3c7.93-.36,13.66,2.88,16.05,8.15a12.06,12.06,0,0,1,5.11-1.52c4.57-.2,7,3.07,5.47,7.3-.1.26-.21.52-.32.78H156.41C156.76,114.9,166.11,110.28,171.79,110.07Z" style="fill:#f0f0f0"></path><path d="M76,165.68a6.53,6.53,0,0,1,.87-.05c3.17-3.24,6.82-5.31,10-5.31a5,5,0,0,1,4.79,2.91c5.83-6.28,12.74-10.36,18.6-10.36,4.73,0,7.91,2.65,9.25,7,3.12-2.46,6.43-3.94,9.35-3.94,5.15,0,7.63,4.56,6.69,11h0a21,21,0,0,1,8.28-2.46c5.21-.29,8.52,2.33,9.39,6.6a7.69,7.69,0,0,1,3.52-1.23c2.85-.15,4.05,2.2,2.86,5.36H61.69C64.44,170.4,70.69,166.22,76,165.68Z" style="fill:#f5f5f5"></path></g><g id="freepik--Shadow--inject-22"><ellipse id="freepik--path--inject-22" cx="250" cy="416.24" rx="193.89" ry="11.32" style="fill:#f5f5f5"></ellipse></g><g id="freepik--house-1--inject-22"><rect x="121.81" y="134.27" width="17.25" height="54.67" style="fill:#263238"></rect><polygon points="169.05 125.36 89.67 204.74 248.42 204.74 169.05 125.36" style="fill:#263238"></polygon><polygon points="169.05 132.1 96.4 204.74 241.69 204.74 169.05 132.1" style="fill:#00A3A3"></polygon><rect x="166.93" y="162.68" width="4.23" height="63.46" transform="translate(-25.36 363.45) rotate(-90)" style="opacity:0.1"></rect><polygon points="169.64 154.49 169.64 150.26 158.09 150.26 158.09 154.49 163.86 154.49 163.86 158.71 175.41 158.71 175.41 154.49 169.64 154.49" style="opacity:0.1"></polygon><rect x="105.03" y="200.27" width="128.03" height="215.97" style="fill:#00A3A3"></rect><rect x="102.54" y="413.52" width="133.01" height="2.72" style="fill:#00A3A3"></rect><polygon points="103.31 247.46 103.31 308.56 101.68 308.56 101.68 311.79 105.03 311.79 105.03 308.56 105.03 247.46 103.31 247.46" style="fill:#00A3A3"></polygon><polygon points="234.78 247.46 234.78 308.56 236.41 308.56 236.41 311.79 233.06 311.79 233.06 308.56 233.06 247.46 234.78 247.46" style="fill:#00A3A3"></polygon><polygon points="101.58 207.72 236.51 207.72 234.92 229.14 103.17 229.14 101.58 207.72" style="fill:#00A3A3"></polygon><rect x="105.03" y="204.74" width="128.03" height="2.98" style="opacity:0.1"></rect><rect x="105.03" y="228.96" width="128.03" height="2.98" style="opacity:0.1"></rect><path d="M169.05,165.05A27.25,27.25,0,0,0,141.8,192.3h54.49A27.25,27.25,0,0,0,169.05,165.05Z" style="fill:#fff;opacity:0.4"></path><path d="M172.91,171.65a20.65,20.65,0,0,0-20.64,20.65h41.28A20.65,20.65,0,0,0,172.91,171.65Z" style="fill:#00A3A3;opacity:0.30000000000000004"></path><rect x="107.73" y="211.91" width="1.54" height="13.04" style="opacity:0.1"></rect><rect x="115.3" y="211.91" width="1.54" height="13.04" style="opacity:0.1"></rect><rect x="122.87" y="211.91" width="1.54" height="13.04" style="opacity:0.1"></rect><rect x="130.44" y="211.91" width="1.54" height="13.04" style="opacity:0.1"></rect><rect x="138" y="211.91" width="1.54" height="13.04" style="opacity:0.1"></rect><rect x="145.57" y="211.91" width="1.54" height="13.04" style="opacity:0.1"></rect><rect x="153.14" y="211.91" width="1.54" height="13.04" style="opacity:0.1"></rect><rect x="160.71" y="211.91" width="1.54" height="13.04" style="opacity:0.1"></rect><rect x="168.27" y="211.91" width="1.54" height="13.04" style="opacity:0.1"></rect><rect x="175.84" y="211.91" width="1.54" height="13.04" style="opacity:0.1"></rect><rect x="183.41" y="211.91" width="1.54" height="13.04" style="opacity:0.1"></rect><rect x="190.98" y="211.91" width="1.54" height="13.04" style="opacity:0.1"></rect><rect x="198.55" y="211.91" width="1.54" height="13.04" style="opacity:0.1"></rect><rect x="206.11" y="211.91" width="1.54" height="13.04" style="opacity:0.1"></rect><rect x="213.68" y="211.91" width="1.54" height="13.04" style="opacity:0.1"></rect><rect x="221.25" y="211.91" width="1.54" height="13.04" style="opacity:0.1"></rect><rect x="228.82" y="211.91" width="1.54" height="13.04" style="opacity:0.1"></rect><rect x="109.26" y="316.01" width="1.5" height="3.51" style="opacity:0.1"></rect><rect x="116.64" y="316.01" width="1.5" height="3.51" style="opacity:0.1"></rect><rect x="124.02" y="316.01" width="1.5" height="3.51" style="opacity:0.1"></rect><rect x="131.4" y="316.01" width="1.5" height="3.51" style="opacity:0.1"></rect><rect x="138.78" y="316.01" width="1.5" height="3.51" style="opacity:0.1"></rect><rect x="146.16" y="316.01" width="1.5" height="3.51" style="opacity:0.1"></rect><rect x="153.54" y="316.01" width="1.5" height="3.51" style="opacity:0.1"></rect><rect x="160.92" y="316.01" width="1.5" height="3.51" style="opacity:0.1"></rect><rect x="168.29" y="316.01" width="1.5" height="3.51" style="opacity:0.1"></rect><rect x="175.67" y="316.01" width="1.5" height="3.51" style="opacity:0.1"></rect><rect x="183.05" y="316.01" width="1.5" height="3.51" style="opacity:0.1"></rect><rect x="190.43" y="316.01" width="1.5" height="3.51" style="opacity:0.1"></rect><rect x="197.81" y="316.01" width="1.5" height="3.51" style="opacity:0.1"></rect><rect x="205.19" y="316.01" width="1.5" height="3.51" style="opacity:0.1"></rect><rect x="212.57" y="316.01" width="1.5" height="3.51" style="opacity:0.1"></rect><rect x="219.94" y="316.01" width="1.5" height="3.51" style="opacity:0.1"></rect><rect x="227.32" y="316.01" width="1.5" height="3.51" style="opacity:0.1"></rect><rect x="101.83" y="263.23" width="61.1" height="29.55" transform="translate(410.39 145.62) rotate(90)" style="fill:#fff;opacity:0.4"></rect><rect x="130.66" y="295.29" width="3.23" height="29.76" transform="translate(-177.9 442.45) rotate(-90)" style="opacity:0.1"></rect><rect x="130.52" y="263.23" width="3.73" height="29.55" transform="translate(410.39 145.62) rotate(90)" style="fill:#fff;opacity:0.4"></rect><rect x="119.84" y="249.69" width="25.08" height="56.63" style="fill:#fff;opacity:0.4"></rect><rect x="123.64" y="259.13" width="19.4" height="47.19" style="fill:#00A3A3;opacity:0.30000000000000004"></rect><rect x="161.84" y="263.23" width="61.1" height="29.55" transform="translate(470.4 85.62) rotate(90)" style="fill:#fff;opacity:0.4"></rect><rect x="190.78" y="281.8" width="3.23" height="56.75" transform="translate(-117.78 502.57) rotate(-90)" style="opacity:0.1"></rect><rect x="190.53" y="263.23" width="3.73" height="29.55" transform="translate(470.4 85.62) rotate(90)" style="fill:#fff;opacity:0.4"></rect><rect x="179.85" y="249.69" width="25.08" height="56.63" style="fill:#fff;opacity:0.4"></rect><rect x="183.65" y="259.13" width="19.4" height="47.19" style="fill:#00A3A3;opacity:0.30000000000000004"></rect><rect x="185.4" y="273.19" width="61.1" height="9.64" transform="translate(493.96 62.06) rotate(90)" style="fill:#fff;opacity:0.4"></rect><rect x="214.08" y="273.19" width="3.73" height="9.64" transform="translate(493.96 62.06) rotate(90)" style="fill:#fff;opacity:0.4"></rect><rect x="213.36" y="249.69" width="5.17" height="56.63" style="fill:#fff;opacity:0.4"></rect><rect x="138.29" y="273.19" width="61.1" height="9.64" transform="translate(446.84 109.17) rotate(90)" style="fill:#fff;opacity:0.4"></rect><rect x="166.97" y="273.19" width="3.73" height="9.64" transform="translate(446.84 109.17) rotate(90)" style="fill:#fff;opacity:0.4"></rect><rect x="166.25" y="249.69" width="5.17" height="56.63" style="fill:#fff;opacity:0.4"></rect><rect x="161.84" y="345.5" width="61.1" height="29.55" transform="translate(552.67 167.88) rotate(90)" style="fill:#fff;opacity:0.4"></rect><rect x="190.78" y="364.07" width="3.23" height="56.75" transform="translate(-200.05 584.83) rotate(-90)" style="opacity:0.1"></rect><rect x="190.53" y="345.5" width="3.73" height="29.55" transform="translate(552.67 167.88) rotate(90)" style="fill:#fff;opacity:0.4"></rect><rect x="179.85" y="331.96" width="25.08" height="56.63" style="fill:#fff;opacity:0.4"></rect><rect x="183.65" y="341.4" width="19.4" height="47.19" style="fill:#00A3A3;opacity:0.30000000000000004"></rect><rect x="185.4" y="355.46" width="61.1" height="9.64" transform="translate(576.22 144.33) rotate(90)" style="fill:#fff;opacity:0.4"></rect><rect x="214.09" y="355.46" width="3.73" height="9.64" transform="translate(576.22 144.33) rotate(90)" style="fill:#fff;opacity:0.4"></rect><rect x="213.36" y="331.96" width="5.17" height="56.63" style="fill:#fff;opacity:0.4"></rect><rect x="138.29" y="355.46" width="61.1" height="9.64" transform="translate(529.11 191.44) rotate(90)" style="fill:#fff;opacity:0.4"></rect><rect x="166.97" y="355.46" width="3.73" height="9.64" transform="translate(529.11 191.44) rotate(90)" style="fill:#fff;opacity:0.4"></rect><rect x="166.25" y="331.96" width="5.17" height="56.63" style="fill:#fff;opacity:0.4"></rect><polygon points="157.71 410.8 157.71 405.36 113.46 405.36 113.46 410.8 110.64 410.8 110.64 416.24 160.53 416.24 160.53 410.8 157.71 410.8" style="opacity:0.1"></polygon><path d="M135.59,329.73h0a19.48,19.48,0,0,1,19.48,19.48v56.15a0,0,0,0,1,0,0h-39a0,0,0,0,1,0,0V349.21A19.48,19.48,0,0,1,135.59,329.73Z" style="fill:#fff;opacity:0.4"></path><rect x="119.95" y="351.03" width="31.26" height="54.33" style="fill:#00A3A3;opacity:0.5"></rect><path d="M135.59,333.52a11.9,11.9,0,0,0-11.91,11.9h23.81A11.9,11.9,0,0,0,135.59,333.52Z" style="fill:#00A3A3;opacity:0.5"></path><path d="M149.46,378.19a2,2,0,1,1-2-2A2,2,0,0,1,149.46,378.19Z" style="fill:#00A3A3"></path><rect x="134.87" y="236.59" width="4.23" height="11.55" transform="translate(-105.39 379.35) rotate(-90)" style="opacity:0.1"></rect><rect x="189.07" y="230.73" width="4.23" height="11.55" transform="translate(-45.32 427.68) rotate(-90)" style="opacity:0.1"></rect><polygon points="214.02 403.58 214.02 399.36 202.47 399.36 202.47 403.58 208.24 403.58 208.24 407.81 219.79 407.81 219.79 403.58 214.02 403.58" style="opacity:0.1"></polygon></g><g id="freepik--house-2--inject-22"><rect x="258.2" y="157.8" width="126.09" height="258.44" style="fill:#00A3A3"></rect><path d="M276.1,126.56h0a.9.9,0,0,0-.91.9v26.18H277V127.46A.9.9,0,0,0,276.1,126.56Z" style="fill:#263238"></path><path d="M365.8,145.21h0a.9.9,0,0,0-.9.9v7.53h1.81v-7.53A.9.9,0,0,0,365.8,145.21Z" style="fill:#263238"></path><rect x="289.34" y="133.39" width="1.81" height="20.25" style="fill:#263238"></rect><path d="M304.31,128.37c2.65,7.28.78,14.65-4.18,16.45s-11.13-2.63-13.78-9.92-.77-14.64,4.19-16.44S301.67,121.09,304.31,128.37Z" style="fill:#263238"></path><polygon points="384.29 291.08 429.89 321.67 429.89 416.24 384.29 416.24 384.29 291.08" style="fill:#00A3A3"></polygon><polygon points="384.29 291.08 429.89 321.67 429.89 416.24 384.29 416.24 384.29 291.08" style="opacity:0.1"></polygon><polygon points="419.06 389.22 419.06 384.63 406.53 384.63 406.53 389.22 412.8 389.22 412.8 393.81 425.32 393.81 425.32 389.22 419.06 389.22" style="opacity:0.1"></polygon><polygon points="434.17 326.33 384.29 292.67 384.29 287.55 434.17 321.22 434.17 326.33" style="fill:#263238"></polygon><rect x="386.37" y="335.07" width="40.32" height="30.93" transform="translate(757.07 -56) rotate(90)" style="fill:#fff;opacity:0.4"></rect><rect x="405.3" y="335.07" width="2.46" height="30.93" transform="translate(757.07 -56) rotate(90)" style="fill:#fff;opacity:0.4"></rect><rect x="392.4" y="331.85" width="28.26" height="37.37" style="fill:#fff;opacity:0.4"></rect><rect x="394.67" y="338.08" width="24.86" height="31.14" style="fill:#00A3A3;opacity:0.30000000000000004"></rect><polygon points="384.29 157.8 258.2 157.8 256.48 155.06 386.01 155.06 384.29 157.8" style="fill:#00A3A3"></polygon><polygon points="384.29 157.8 258.2 157.8 256.48 155.06 386.01 155.06 384.29 157.8" style="opacity:0.2"></polygon><polygon points="386.75 155.06 255.74 155.06 253.96 152.21 388.53 152.21 386.75 155.06" style="fill:#263238"></polygon><rect x="262.22" y="164.58" width="10.74" height="25.86" style="opacity:0.2"></rect><rect x="263.81" y="168.41" width="7.56" height="18.22" style="fill:#00A3A3;opacity:0.4"></rect><rect x="369.53" y="164.58" width="10.74" height="25.86" style="opacity:0.2"></rect><rect x="371.11" y="168.41" width="7.56" height="18.22" style="fill:#00A3A3;opacity:0.4"></rect><rect x="347.88" y="164.58" width="17.02" height="25.86" style="opacity:0.2"></rect><rect x="350.4" y="168.41" width="11.99" height="18.22" style="fill:#00A3A3;opacity:0.4"></rect><rect x="277.59" y="164.58" width="17.02" height="25.86" style="opacity:0.2"></rect><rect x="280.11" y="168.41" width="11.99" height="18.22" style="fill:#00A3A3;opacity:0.4"></rect><rect x="299.73" y="164.58" width="43.04" height="25.86" style="opacity:0.2"></rect><rect x="306.09" y="168.41" width="30.31" height="18.22" style="fill:#00A3A3;opacity:0.4"></rect><rect x="263.16" y="233.02" width="73.13" height="32.06" transform="translate(548.78 -50.67) rotate(90)" style="fill:#fff;opacity:0.4"></rect><rect x="298.76" y="255.81" width="1.94" height="61.56" transform="translate(13.14 586.31) rotate(-90)" style="opacity:0.1"></rect><rect x="297.5" y="233.02" width="4.46" height="32.06" transform="translate(548.78 -50.67) rotate(90)" style="fill:#fff;opacity:0.4"></rect><rect x="286.12" y="215.16" width="27.21" height="67.78" style="fill:#fff;opacity:0.4"></rect><rect x="290.24" y="226.46" width="21.04" height="56.48" style="fill:#00A3A3;opacity:0.30000000000000004"></rect><rect x="288.71" y="243.83" width="73.13" height="10.45" transform="translate(574.33 -76.23) rotate(90)" style="fill:#fff;opacity:0.4"></rect><rect x="323.05" y="243.83" width="4.46" height="10.45" transform="translate(574.33 -76.23) rotate(90)" style="fill:#fff;opacity:0.4"></rect><rect x="322.48" y="215.16" width="5.6" height="67.78" style="fill:#fff;opacity:0.4"></rect><rect x="237.61" y="243.83" width="73.13" height="10.45" transform="translate(523.23 -25.12) rotate(90)" style="fill:#fff;opacity:0.4"></rect><rect x="271.94" y="243.83" width="4.46" height="10.45" transform="translate(523.23 -25.12) rotate(90)" style="fill:#fff;opacity:0.4"></rect><rect x="271.37" y="215.16" width="5.6" height="67.78" style="fill:#fff;opacity:0.4"></rect><rect x="263.16" y="324.08" width="73.13" height="32.06" transform="translate(639.84 40.38) rotate(90)" style="fill:#fff;opacity:0.4"></rect><rect x="298.76" y="346.86" width="1.94" height="61.56" transform="translate(-77.92 677.37) rotate(-90)" style="opacity:0.1"></rect><rect x="297.5" y="324.08" width="4.46" height="32.06" transform="translate(639.84 40.38) rotate(90)" style="fill:#fff;opacity:0.4"></rect><rect x="286.12" y="306.22" width="27.21" height="67.78" style="fill:#fff;opacity:0.4"></rect><rect x="290.24" y="317.52" width="21.04" height="56.48" style="fill:#00A3A3;opacity:0.30000000000000004"></rect><rect x="288.71" y="334.88" width="73.13" height="10.45" transform="translate(665.39 14.83) rotate(90)" style="fill:#fff;opacity:0.4"></rect><rect x="323.05" y="334.88" width="4.46" height="10.45" transform="translate(665.39 14.83) rotate(90)" style="fill:#fff;opacity:0.4"></rect><rect x="322.48" y="306.22" width="5.6" height="67.78" style="fill:#fff;opacity:0.4"></rect><rect x="237.61" y="334.88" width="73.13" height="10.45" transform="translate(614.28 65.94) rotate(90)" style="fill:#fff;opacity:0.4"></rect><rect x="271.94" y="334.88" width="4.46" height="10.45" transform="translate(614.28 65.94) rotate(90)" style="fill:#fff;opacity:0.4"></rect><rect x="271.37" y="306.22" width="5.6" height="67.78" style="fill:#fff;opacity:0.4"></rect><rect x="322.23" y="233.02" width="73.13" height="32.06" transform="translate(607.84 -109.74) rotate(90)" style="fill:#fff;opacity:0.4"></rect><rect x="357.82" y="270.56" width="1.94" height="32.06" transform="translate(72.21 645.38) rotate(-90)" style="opacity:0.1"></rect><rect x="356.56" y="233.02" width="4.46" height="32.06" transform="translate(607.84 -109.74) rotate(90)" style="fill:#fff;opacity:0.4"></rect><rect x="345.19" y="215.16" width="27.21" height="67.78" style="fill:#fff;opacity:0.4"></rect><rect x="349.31" y="226.46" width="21.04" height="56.48" style="fill:#00A3A3;opacity:0.30000000000000004"></rect><polygon points="287.72 201.47 287.72 196.88 275.19 196.88 275.19 201.47 281.46 201.47 281.46 206.05 293.98 206.05 293.98 201.47 287.72 201.47" style="opacity:0.1"></polygon><polygon points="348.32 298.96 348.32 294.37 335.79 294.37 335.79 298.96 342.06 298.96 342.06 303.55 354.58 303.55 354.58 298.96 348.32 298.96" style="opacity:0.1"></polygon><rect x="325.79" y="190.62" width="4.59" height="12.53" transform="translate(131.2 524.96) rotate(-90)" style="opacity:0.1"></rect><rect x="277.11" y="384.36" width="4.59" height="12.53" transform="translate(-111.22 670.02) rotate(-90)" style="opacity:0.1"></rect><rect x="307.2" y="397.49" width="4.59" height="12.53" transform="translate(-94.26 713.25) rotate(-90)" style="opacity:0.1"></rect><rect x="393.73" y="312.16" width="4.59" height="12.53" transform="translate(77.6 714.44) rotate(-90)" style="opacity:0.1"></rect><polygon points="378.78 407.47 378.78 398.7 377.24 398.7 377.24 389.93 338.91 389.93 338.91 398.7 337.37 398.7 337.37 407.47 335.55 407.47 335.55 416.24 380.6 416.24 380.6 407.47 378.78 407.47" style="opacity:0.1"></polygon><rect x="319.97" y="332.65" width="76.22" height="38.34" transform="translate(709.89 -6.26) rotate(90)" style="fill:#263238;opacity:0.1"></rect><rect x="341.34" y="316.13" width="33.49" height="73.79" style="fill:#263238;opacity:0.30000000000000004"></rect><g style="opacity:0.6000000000000001"><rect x="346.94" y="324" width="10.22" height="10.22" style="fill:#00A3A3"></rect><rect x="359" y="324" width="10.22" height="10.22" style="fill:#00A3A3"></rect><rect x="346.94" y="336.11" width="10.22" height="10.22" style="fill:#00A3A3"></rect><rect x="359" y="336.11" width="10.22" height="10.22" style="fill:#00A3A3"></rect></g><circle cx="369.96" cy="356.24" r="2.14" style="fill:#00A3A3"></circle></g></svg>